<svg width="512" height="512" viewBox="0 0 512 512" fill="none" xmlns="http://www.w3.org/2000/svg" role="img" aria-labelledby="sidequestMarkTitle sidequestMarkDesc">
  <title id="sidequestMarkTitle">SideQuest mark</title>
  <desc id="sidequestMarkDesc">A blue quest compass mark with a checked path.</desc>
  <rect width="512" height="512" rx="112" fill="#071326"/>
  <defs>
    <linearGradient id="markGradient" x1="126" y1="64" x2="386" y2="448" gradientUnits="userSpaceOnUse">
      <stop stop-color="#7DD3FC"/>
      <stop offset="0.5" stop-color="#3B82F6"/>
      <stop offset="1" stop-color="#2563EB"/>
    </linearGradient>
    <radialGradient id="halo" cx="0" cy="0" r="1" gradientUnits="userSpaceOnUse" gradientTransform="translate(256 256) rotate(90) scale(236)">
      <stop stop-color="#2563EB" stop-opacity="0.55"/>
      <stop offset="1" stop-color="#2563EB" stop-opacity="0"/>
    </radialGradient>
  </defs>
  <circle cx="256" cy="256" r="236" fill="url(#halo)"/>
  <path d="M256 54L318.9 193.1L458 256L318.9 318.9L256 458L193.1 318.9L54 256L193.1 193.1L256 54Z" fill="#0A1730" stroke="#2A5FD7" stroke-width="14"/>
  <path d="M256 86L305.1 206.9L426 256L305.1 305.1L256 426L206.9 305.1L86 256L206.9 206.9L256 86Z" fill="url(#markGradient)"/>
  <path d="M256 142L287.6 224.4L370 256L287.6 287.6L256 370L224.4 287.6L142 256L224.4 224.4L256 142Z" fill="#DBEAFE" opacity="0.96"/>
  <path d="M196 270C224 227 265 216 318 236" stroke="#071326" stroke-width="28" stroke-linecap="round"/>
  <path d="M196 270C224 227 265 216 318 236" stroke="#38BDF8" stroke-width="13" stroke-linecap="round"/>
  <path d="M312 234L340 205" stroke="#38BDF8" stroke-width="13" stroke-linecap="round"/>
  <circle cx="196" cy="270" r="18" fill="#38BDF8" stroke="#071326" stroke-width="10"/>
  <circle cx="318" cy="236" r="18" fill="#38BDF8" stroke="#071326" stroke-width="10"/>
</svg>
